<?xml version="1.0" encoding="UTF-8" standalone="no"?>
<!-- Created with Inkscape (http://www.inkscape.org/) -->

<svg
   width="214.90158"
   height="214.90065"
   viewBox="0 0 56.859375 56.85913"
   version="1.1"
   id="svg4054"
   inkscape:version="1.2.2 (732a01da63, 2022-12-09)"
   sodipodi:docname="wireframe.svg"
   xml:space="preserve"
   xmlns:inkscape="http://www.inkscape.org/namespaces/inkscape"
   xmlns:sodipodi="http://sodipodi.sourceforge.net/DTD/sodipodi-0.dtd"
   xmlns:xlink="http://www.w3.org/1999/xlink"
   xmlns="http://www.w3.org/2000/svg"
   xmlns:svg="http://www.w3.org/2000/svg"><sodipodi:namedview
     id="namedview4056"
     pagecolor="#ffffff"
     bordercolor="#000000"
     borderopacity="0.25"
     inkscape:showpageshadow="2"
     inkscape:pageopacity="0.0"
     inkscape:pagecheckerboard="0"
     inkscape:deskcolor="#d1d1d1"
     inkscape:document-units="px"
     showgrid="false"
     inkscape:zoom="5.6568542"
     inkscape:cx="5705.2911"
     inkscape:cy="3760.9242"
     inkscape:window-width="1920"
     inkscape:window-height="1017"
     inkscape:window-x="-8"
     inkscape:window-y="47"
     inkscape:window-maximized="1"
     inkscape:current-layer="layer1" /><defs
     id="defs4051"><linearGradient
       inkscape:collect="always"
       id="linearGradient25966"><stop
         style="stop-color:#ffffff;stop-opacity:1;"
         offset="0"
         id="stop25962" /><stop
         style="stop-color:#ffffff;stop-opacity:0;"
         offset="1"
         id="stop25964" /></linearGradient><linearGradient
       inkscape:collect="always"
       id="linearGradient41939"><stop
         style="stop-color:#88a1f5;stop-opacity:1;"
         offset="0"
         id="stop41935" /><stop
         style="stop-color:#1b4beb;stop-opacity:1;"
         offset="1"
         id="stop41937" /></linearGradient><linearGradient
       inkscape:collect="always"
       id="linearGradient39735"><stop
         style="stop-color:#88a1f5;stop-opacity:1;"
         offset="0"
         id="stop39731" /><stop
         style="stop-color:#1b4beb;stop-opacity:1;"
         offset="1"
         id="stop39733" /></linearGradient><filter
       inkscape:collect="always"
       style="color-interpolation-filters:sRGB"
       id="filter46393"
       x="-0.048"
       y="-0.048"
       width="1.096"
       height="1.096"><feGaussianBlur
         inkscape:collect="always"
         stdDeviation="0.80065216"
         id="feGaussianBlur46395" /></filter><filter
       inkscape:collect="always"
       style="color-interpolation-filters:sRGB"
       id="filter2776"
       x="-0.050183777"
       y="-0.050183821"
       width="1.1003675"
       height="1.1003675"><feGaussianBlur
         inkscape:collect="always"
         stdDeviation="2.1751613"
         id="feGaussianBlur2778" /></filter><filter
       inkscape:collect="always"
       style="color-interpolation-filters:sRGB"
       id="filter26030"
       x="-0.011637187"
       y="-0.0063198893"
       width="1.0232744"
       height="1.0126398"><feGaussianBlur
         inkscape:collect="always"
         stdDeviation="0.12563071"
         id="feGaussianBlur26032" /></filter><filter
       inkscape:collect="always"
       style="color-interpolation-filters:sRGB"
       id="filter30126"
       x="-0.003"
       y="-0.003"
       width="1.006"
       height="1.006"><feGaussianBlur
         inkscape:collect="always"
         stdDeviation="0.059636049"
         id="feGaussianBlur30128" /></filter><filter
       inkscape:collect="always"
       style="color-interpolation-filters:sRGB"
       id="filter30130"
       x="-0.095897928"
       y="-0.095897928"
       width="1.1917959"
       height="1.1917959"><feGaussianBlur
         inkscape:collect="always"
         stdDeviation="1.9063245"
         id="feGaussianBlur30132" /></filter><linearGradient
       inkscape:collect="always"
       xlink:href="#linearGradient41939"
       id="linearGradient33195"
       gradientUnits="userSpaceOnUse"
       gradientTransform="matrix(1.0920745,0,0,1.0920745,656.17436,-53.650292)"
       x1="1528.2026"
       y1="1030.421"
       x2="1484.5162"
       y2="986.73462" /><linearGradient
       inkscape:collect="always"
       xlink:href="#linearGradient39735"
       id="linearGradient33197"
       gradientUnits="userSpaceOnUse"
       gradientTransform="matrix(0.91636247,0,0,0.91636247,920.85983,123.56896)"
       x1="1484.5162"
       y1="986.73462"
       x2="1528.2026"
       y2="1030.421" /><linearGradient
       inkscape:collect="always"
       xlink:href="#linearGradient25966"
       id="linearGradient33199"
       gradientUnits="userSpaceOnUse"
       x1="2312.1667"
       y1="1010.31"
       x2="2302.2891"
       y2="1072.7045" /></defs><g
     inkscape:label="Layer 1"
     inkscape:groupmode="layer"
     id="layer1"
     transform="translate(-2222.0064,-1322.6335)"><g
       id="g33193"
       transform="translate(-53.440257,300.09643)"><rect
         style="mix-blend-mode:normal;fill:#0b2e9a;fill-opacity:0.281314;stroke:none;stroke-width:0.132292;stroke-dasharray:none;stroke-opacity:1;paint-order:fill markers stroke;filter:url(#filter30130)"
         id="rect33165"
         width="47.708839"
         height="47.708839"
         x="2280.022"
         y="1027.1123"
         ry="9.2853785" /><rect
         style="fill:url(#linearGradient33195);fill-opacity:1;stroke:none;stroke-width:0.132292;stroke-dasharray:none;stroke-opacity:1;paint-order:fill markers stroke;filter:url(#filter30126)"
         id="rect33167"
         width="47.708839"
         height="47.708839"
         x="2277.3767"
         y="1023.9373"
         ry="9.2853785" /><rect
         style="fill:url(#linearGradient33197);fill-opacity:1;stroke:none;stroke-width:0.132292;stroke-dasharray:none;stroke-opacity:1;paint-order:fill markers stroke;filter:url(#filter46393)"
         id="rect33169"
         width="40.032608"
         height="40.032608"
         x="2281.2148"
         y="1027.7754"
         ry="7.7913852" /><path
         id="path33171"
         style="opacity:0.0923077;fill:url(#linearGradient33199);fill-opacity:1;stroke:none;stroke-width:0.264583;stroke-dasharray:none;stroke-opacity:1;paint-order:stroke fill markers;filter:url(#filter26030)"
         d="m 2300.7841,1023.9375 a 42.28204,58.222527 0 0 0 -1.6082,15.8388 42.28204,58.222527 0 0 0 6.9102,31.8699 h 9.7141 c 5.1441,0 9.2852,-4.1411 9.2852,-9.2852 v -29.1383 c 0,-5.1441 -4.1411,-9.2852 -9.2852,-9.2852 z" /><g
         id="g33181"
         style="opacity:0.125;mix-blend-mode:normal;fill:#1a1a1a;fill-opacity:1;stroke:none;stroke-width:4.65136;stroke-opacity:1;filter:url(#filter2776)"
         transform="matrix(0.2149903,0,0,0.2149903,1698.182,602.9231)"><g
           id="g33179"
           style="fill:#1a1a1a;fill-opacity:1;stroke:none;stroke-width:4.65136;stroke-opacity:1"><path
             style="color:#000000;fill:#1a1a1a;fill-opacity:1;stroke:none;stroke-width:4.65136;stroke-opacity:1;-inkscape-stroke:none;paint-order:fill markers stroke"
             d="m 2809.9277,2022.1602 c -28.7234,0 -52.0117,23.2902 -52.0117,52.0136 0,28.7236 23.2884,52.0117 52.0117,52.0117 28.7234,0 52.0137,-23.2881 52.0137,-52.0117 v -52.0117 z m 0,10.5839 h 41.4297 v 41.4297 c 0,23.0434 -18.3863,41.4297 -41.4297,41.4297 -23.0433,0 -41.4297,-18.3862 -41.4297,-41.4297 0,-23.0433 18.3864,-41.4297 41.4297,-41.4297 z"
             id="path33173" /><path
             style="color:#000000;fill:#1a1a1a;fill-opacity:1;stroke:none;stroke-width:4.65136;stroke-opacity:1;-inkscape-stroke:none;paint-order:fill markers stroke"
             d="m 2769.1797,2056.0684 -7.4824,7.4824 0.014,0.014 c 18.2991,18.2991 47.9782,18.3323 66.2539,0.057 l -7.4843,-7.4844 c -14.2517,14.2517 -36.9949,14.2357 -51.2852,-0.055 z"
             id="path33175" /><path
             style="color:#000000;fill:#1a1a1a;fill-opacity:1;stroke:none;stroke-width:4.65136;stroke-opacity:1;-inkscape-stroke:none;paint-order:fill markers stroke"
             d="m 2820.4727,2056.1465 c -18.2758,18.2756 -18.2444,47.953 0.055,66.2519 l 0.016,0.016 7.4824,-7.4844 -0.014,-0.014 c -14.2903,-14.2902 -14.3082,-37.0356 -0.057,-51.2871 z"
             id="path33177" /></g></g><g
         id="g33191"
         style="fill:#ffffff;fill-opacity:1;stroke:#1b4beb;stroke-width:4.65136"
         transform="matrix(0.2149903,0,0,0.2149903,1697.2213,601.9624)"><g
           id="g33189"
           style="fill:#f2f2f2;fill-opacity:1;stroke-width:4.65136"><path
             style="color:#000000;fill:#f2f2f2;fill-opacity:1;stroke:none;stroke-width:4.65136;-inkscape-stroke:none;paint-order:fill markers stroke"
             d="m 2809.9277,2022.1602 c -28.7234,0 -52.0117,23.2902 -52.0117,52.0136 0,28.7236 23.2884,52.0117 52.0117,52.0117 28.7234,0 52.0137,-23.2881 52.0137,-52.0117 v -52.0117 z m 0,10.5839 h 41.4297 v 41.4297 c 0,23.0434 -18.3863,41.4297 -41.4297,41.4297 -23.0433,0 -41.4297,-18.3862 -41.4297,-41.4297 0,-23.0433 18.3864,-41.4297 41.4297,-41.4297 z"
             id="path33183" /><path
             style="color:#000000;fill:#f2f2f2;fill-opacity:1;stroke:none;stroke-width:4.65136;-inkscape-stroke:none;paint-order:fill markers stroke"
             d="m 2769.1797,2056.0684 -7.4824,7.4824 0.014,0.014 c 18.2991,18.2991 47.9782,18.3323 66.2539,0.057 l -7.4843,-7.4844 c -14.2517,14.2517 -36.9949,14.2357 -51.2852,-0.055 z"
             id="path33185" /><path
             style="color:#000000;fill:#f2f2f2;fill-opacity:1;stroke:none;stroke-width:4.65136;-inkscape-stroke:none;paint-order:fill markers stroke"
             d="m 2820.4727,2056.1465 c -18.2758,18.2756 -18.2444,47.953 0.055,66.2519 l 0.016,0.016 7.4824,-7.4844 -0.014,-0.014 c -14.2903,-14.2902 -14.3082,-37.0356 -0.057,-51.2871 z"
             id="path33187" /></g></g></g></g></svg>
