<?xml version="1.0" encoding="UTF-8" standalone="no"?>
<!-- Created with Inkscape (http://www.inkscape.org/) -->

<svg
   width="33.899483"
   height="33.899944"
   viewBox="0 0 8.9692379 8.9693602"
   version="1.1"
   id="svg4054"
   xml:space="preserve"
   xmlns:xlink="http://www.w3.org/1999/xlink"
   xmlns="http://www.w3.org/2000/svg"
   xmlns:svg="http://www.w3.org/2000/svg"><defs
     id="defs4051"><linearGradient
       id="linearGradient41535"><stop
         style="stop-color:#ffffff;stop-opacity:1;"
         offset="0.75133216"
         id="stop41531" /><stop
         style="stop-color:#000000;stop-opacity:1;"
         offset="1"
         id="stop41533" /></linearGradient><linearGradient
       id="linearGradient25579"><stop
         style="stop-color:#ffffff;stop-opacity:1;"
         offset="0.70000046"
         id="stop25575" /><stop
         style="stop-color:#000000;stop-opacity:1;"
         offset="1"
         id="stop25577" /></linearGradient><linearGradient
       id="linearGradient42132"><stop
         style="stop-color:#ffffff;stop-opacity:1;"
         offset="0.74955595"
         id="stop42128" /><stop
         style="stop-color:#000000;stop-opacity:1;"
         offset="1"
         id="stop42130" /></linearGradient><linearGradient
       id="linearGradient194902"><stop
         style="stop-color:#1b4beb;stop-opacity:1;"
         offset="0"
         id="stop194898" /><stop
         style="stop-color:#a2b7f7;stop-opacity:1;"
         offset="1"
         id="stop194900" /></linearGradient><radialGradient
       xlink:href="#linearGradient42132"
       id="radialGradient48273"
       gradientUnits="userSpaceOnUse"
       gradientTransform="matrix(1,0,0,0.56249998,-2.2326563e-4,900.90031)"
       cx="2358.1863"
       cy="1818.9218"
       fx="2358.1863"
       fy="1818.9218"
       r="31.220833" /><linearGradient
       xlink:href="#linearGradient41535"
       id="linearGradient41730"
       gradientUnits="userSpaceOnUse"
       gradientTransform="matrix(4.5762711,0,0,4.5762711,-9079.4736,-6988.9869)"
       x1="2673.834"
       y1="1974.9912"
       x2="2673.834"
       y2="2010.1146" /><linearGradient
       xlink:href="#linearGradient194902"
       id="linearGradient58774"
       gradientUnits="userSpaceOnUse"
       x1="3593.2559"
       y1="2187.6062"
       x2="3637.7295"
       y2="2187.6062" /></defs><g
     id="layer1"
     transform="translate(-2350.0808,-2001.707)"><g
       id="g82927"
       style="fill:#1b4beb;fill-opacity:1;stroke:#1b4beb;stroke-width:11.5978"
       transform="matrix(0.08622281,0,0,0.08622281,2112.2855,1827.3507)"><g
         id="g82925"
         style="fill:#1b4beb;fill-opacity:1;stroke-width:11.5978"><path
           style="color:#000000;fill:#1b4beb;fill-opacity:1;stroke:none;stroke-width:11.5978;-inkscape-stroke:none;paint-order:fill markers stroke"
           d="m 2809.9277,2022.1602 c -28.7234,0 -52.0117,23.2902 -52.0117,52.0136 0,28.7236 23.2884,52.0117 52.0117,52.0117 28.7234,0 52.0137,-23.2881 52.0137,-52.0117 v -52.0117 z m 0,10.5839 h 41.4297 v 41.4297 c 0,23.0434 -18.3863,41.4297 -41.4297,41.4297 -23.0433,0 -41.4297,-18.3862 -41.4297,-41.4297 0,-23.0433 18.3864,-41.4297 41.4297,-41.4297 z"
           id="path82919" /><path
           style="color:#000000;fill:#1b4beb;fill-opacity:1;stroke:none;stroke-width:11.5978;-inkscape-stroke:none;paint-order:fill markers stroke"
           d="m 2769.1797,2056.0684 -7.4824,7.4824 0.014,0.014 c 18.2991,18.2991 47.9782,18.3323 66.2539,0.057 l -7.4843,-7.4844 c -14.2517,14.2517 -36.9949,14.2357 -51.2852,-0.055 z"
           id="path82921" /><path
           style="color:#000000;fill:#1b4beb;fill-opacity:1;stroke:none;stroke-width:11.5978;-inkscape-stroke:none;paint-order:fill markers stroke"
           d="m 2820.4727,2056.1465 c -18.2758,18.2756 -18.2444,47.953 0.055,66.2519 l 0.016,0.016 7.4824,-7.4844 -0.014,-0.014 c -14.2903,-14.2902 -14.3082,-37.0356 -0.057,-51.2871 z"
           id="path82923" /></g></g></g></svg>
